<svg xmlns="http://www.w3.org/2000/svg" xml:space="preserve" width="2000" height="1500" data-id="lg_qramgH5KK8az4siNNv" data-version="1" viewBox="0 0 2000 1500"><path fill="#fd7e1d" stroke="transparent" d="M0 0h2000v1500H0z"/><g data-padding="20"><g transform="translate(-1651.786 -1250.462)scale(2.5829)"><rect width="560" height="132.21" x="346.167" y="307.912" fill="none" rx="0" ry="0" transform="translate(400.5 377.87)"/><path fill="#eccbc4" d="M782.477 789.618q-5.55 0-9.26-.86-5.14-1.09-7.54-3.37-5.37-11.37-9.2-24.91-5.31-18.74-7.42-38.67 2.57-3.78 7.02-5.86 4.46-2.09 9.94-2.09 8.23 0 12.94 3.15 4.72 3.14 4.72 8.97-.4 4.34-.72 12.74-.31 8.39-.31 15.19 0 1.89.37 2.94.37 1.06 1.57 1.06.46 0 1.14-.17-.05-.52-.05-1.71v-2q0-8.29.57-19.11.57-10.83 1.37-16.14 5.2-3.2 12.22-3.2 7.03 0 11.31 1.94 5.15 2.4 5.43 7.03-.28 5.6-1.06 11.02-.77 5.43-1.85 12.51-1.09 7.09-1.37 9.37.45.23 1.2.23.74 0 1.37-.57t1.03-2.74q1.77-9.14 2.91-19.28t1.49-17.68q5.25-3.55 14.51-3.55 7.48 0 11.94 3.97 4.45 3.98 4.45 10.66 0 4.46-4.23 23.36-2.17 9.95-4.17 17-2 7.06-3.25 9.91-2.63 5.77-7.86 8.31-5.22 2.55-13.34 2.55-3.25 0-7.51-.97-4.26-.98-6.48-2.18-1.15-1.77-2.57-5.37-1.43-3.59-1.78-5.42-2.22.05-2.22 2.4 0 1.83 1.77 6.74-6 4.8-17.08 4.8m101-32.79v9.99q.4.4 1.31.4.92 0 1.32-.63.4-.62.4-2.17v-8.17q0-5.48-.46-7.28t-1.71-1.8q-.8 0-1.37.57.51 5.66.51 9.09m-21.37 25.3q-9.37-9.02-9.37-24.48 0-15.45 8.83-24.39t23.17-8.94 23.19 9.31q8.8 9.31 8.8 24.25t-8.48 23.74q-8.49 8.8-23.06 8.8-14.56 0-23.08-8.29m73.75 7.25q-6.8 0-10.86-2.46-4.51-2.57-4.51-7.6v-29.42q-3.37-4.74-3.37-11.68t3.37-12.03h8.74q6.74 0 9.65 4.35-1.42 1.6-2.51 4.05-1.08 2.46-1.08 3.52 0 1.05.54 1.57.54.51 1.57.51 2-7.94 7.6-11.65 4.63-3.15 11.42-3.15 8.46 0 13.26 3.6 1.71 4.57 1.71 11.17t-2.63 11.97q-1.94 1.03-5.37 1.74-3.42.72-6.91.72-3.48 0-6.26-.49-2.77-.48-4.02-.88-.46.45-.46 1.31t1.11 1.29q1.12.42 3.75.94v28.68q-6.23 3.94-14.74 3.94m66.73-22.22-2.74 1.2q0 3.82 1.49 8.16 1.25 4.12 3.48 7.32-5.65 5.82-15.71 5.82-5.77 0-10-3.02-4.91-3.43-4.91-9.09v-66.67q2.74-1.6 6.6-2.62 3.86-1.03 7.8-1.03 6.57 0 10.85 2.57 4.86 3.03 4.86 8.68v6.06q0 7.6-2.69 14.85-.51.74-1.83 2.14-1.31 1.4-2.08 2.55-.77 1.14-.77 1.97 0 .82 1.37 1.51 4.45-4.17 7-9.08 2.54-4.92 4.65-13.03.75-.11 1.72-.28.97-.18 3.22-.55 2.26-.37 3.18-.37 8.79 0 13.71 4.03 4.91 4.03 4.91 11.05 0 7.03-4.46 12.06-4.11 4.51-10.68 6.8 5.26 3.08 13.25 4.4 3.09 5.59 3.09 11.91 0 6.31-4 10.54-4.46 4.62-12.31 4.62-7.86 0-12.91-6.02-5.06-6.03-6.09-16.48m66.16-10.33v9.99q.4.4 1.31.4.92 0 1.32-.63.4-.62.4-2.17v-8.17q0-5.48-.46-7.28t-1.71-1.8q-.8 0-1.38.57.52 5.66.52 9.09m-21.37 25.3q-9.37-9.02-9.37-24.48 0-15.45 8.83-24.39t23.17-8.94 23.19 9.31q8.8 9.31 8.8 24.25t-8.49 23.74q-8.48 8.8-23.05 8.8t-23.08-8.29m73.75 7.25q-6.8 0-10.86-2.46-4.51-2.57-4.51-7.6v-29.42q-3.37-4.74-3.37-11.68t3.37-12.03h8.74q6.74 0 9.65 4.35-1.42 1.6-2.51 4.05-1.09 2.46-1.09 3.52 0 1.05.55 1.57.54.51 1.57.51 2-7.94 7.6-11.65 4.62-3.15 11.42-3.15 8.46 0 13.26 3.6 1.71 4.57 1.71 11.17t-2.63 11.97q-1.94 1.03-5.37 1.74-3.43.72-6.91.72-3.49 0-6.26-.49-2.77-.48-4.02-.88-.46.45-.46 1.31t1.11 1.29q1.12.42 3.75.94v28.68q-6.23 3.94-14.74 3.94m66.16-24.1q.57.57 1.37.57 1.26 0 1.72-1.8.45-1.8.45-7.28v-5.83q0-1.54-.4-2.17t-1.31-.63-1.31.4v7.66q0 3.42-.52 9.08m2.29-46.79v5.09q-4.8.28-8.8 1.45t-4 2.72q0 .91.91 1.48 6.29-3.08 13.31-3.08 12.57 0 20.6 8.65 8.03 8.66 8.03 22.54 0 16.8-9.72 25.31-8.85 7.77-24.08 7.77-15.22 0-22.42-5.89-3.94-3.25-3.94-8.45v-65.19q2.74-1.6 6.6-2.62 3.85-1.03 7.8-1.03 6.57 0 10.85 2.57 4.86 3.03 4.86 8.68m62.38 18.74v22.62q0 8.52 4.11 11.09.06.28.06 1.08v1.03q0 8.4-4.57 12.63-4.23 3.99-11.28 3.99-7.06 0-11.63-3.99-5.77-5.09-5.77-14.86v-37.13q1.03-.74 2.23-1.2t2.51-1.14q-2.45-1.26-4.45-4.37-2-3.12-2-7.29 0-7.2 4.74-11.77t11.63-4.57q6.88 0 11.54 4.66 4.65 4.65 4.65 11.68 0 5.66-3.54 9.91-3.54 4.26-8.63 5.34 0 2.18 1.66 2.18 2.91 0 5.94-2.29 2.29 1.77 2.8 2.4m12.17 31.82v-16.51h3.54q2.86 0 2.86-1.88 0-.23-.12-.69h-12.79q-1.26-4-1.26-8.94t.74-8.03q3.26-2.05 8.97-6.28 1.6-3.89 4.17-12.34.35-1.14.8-2.23 4.46-1.14 10.17-1.14t11.26 1.2v13.99h9.88q3.31 5.03 3.31 11.83 0 3.08-.85 6.34-.86 3.26-2.46 5.54h-8.17v8.63q0 7.31 6.11 7.31h2.46q1.2 4.34 1.2 7.54 0 7.89-4.94 12.09-4.94 4.19-14.34 4.19t-14.97-5.22q-5.57-5.23-5.57-15.4"/><rect width="474.486" height="51.98" x="388.924" y="348.028" fill="none" rx="0" ry="0" transform="translate(400.5 463.21)"/><path fill="#eccbc4" d="M811.587 851.678h-19.74l4.46-31.56h19.46l-.55 3.68h-15.41l-1.38 9.89h13.39l-.51 3.68h-13.39l-1.47 10.63h15.69Zm2.84 8.37q-.83 0-1.68-.18-.85-.19-1.4-.37l.36-2.62h2.03q2.16 0 2.44-2.21l3.12-23.83h-2.11l.46-3.36h2.11l.56-3.86q.18-1.38.8-2.67t1.77-2.09q1.15-.81 2.99-.81.83 0 1.68.16.85.17 1.4.4l-.36 2.62h-2.03q-2.21 0-2.48 2.21l-.55 4.04h4.18l-.46 3.36h-4.18l-3.13 23.65q-.19 1.38-.78 2.64-.6 1.27-1.75 2.09-1.15.83-2.99.83m10.5 0q-.83 0-1.68-.18-.85-.19-1.41-.37l.37-2.62h2.03q2.16 0 2.43-2.21l3.13-23.83h-2.11l.46-3.36h2.11l.55-3.86q.19-1.38.81-2.67t1.77-2.09q1.15-.81 2.99-.81.83 0 1.68.16.85.17 1.4.4l-.37 2.62h-2.02q-2.21 0-2.48 2.21l-.56 4.04h4.19l-.46 3.36h-4.19l-3.12 23.65q-.19 1.38-.79 2.64-.59 1.27-1.74 2.09-1.15.83-2.99.83m20.65-7.82q-3.73 0-5.68-2.09-1.96-2.09-1.96-6.51 0-1.98.28-4.26.28-2.27.94-4.48.67-2.21 1.82-4 1.15-1.8 2.92-2.88t4.3-1.08q3.73 0 5.68 2.12 1.96 2.11 1.96 6.58 0 1.97-.28 4.25-.27 2.28-.94 4.46-.67 2.19-1.82 3.96t-2.92 2.85-4.3 1.08m0-3.36q1.7 0 2.83-1.03 1.13-1.04 1.84-2.67t1.06-3.45q.34-1.82.48-3.45t.14-2.6q0-2.67-.92-4.02-.92-1.36-2.81-1.36-1.65 0-2.8 1.01t-1.84 2.6-1.06 3.36-.51 3.33q-.14 1.57-.14 2.53 0 2.9.88 4.33.87 1.42 2.85 1.42m16.33 2.81h-3.77l3.4-24.2h2.95v3.87q.46-.92 1.03-1.96.58-1.03 1.5-1.75.92-.71 2.3-.71.78 0 1.26.19l.48.18-.55 3.91h-1.24q-1.79 0-3.36 1.63-1.56 1.64-2.02 4.86Zm13.33.46q-2.12 0-2.92-1.17-.81-1.18-.81-2.74 0-.32.19-1.68.18-1.36.43-3.33.26-1.98.58-4.12t.57-4.03q.26-1.88.44-3.06l.19-1.17h-2.07l.46-3.36h2.07l1.65-6.71h3.08l-.96 6.71h3.26l-.46 3.36h-3.26l-.16 1.15q-.16 1.15-.44 2.95-.28 1.79-.55 3.86-.28 2.07-.55 3.91-.28 1.84-.44 3.08t-.16 1.38q0 1.7 1.7 1.7h1.33l-.36 2.63q-.56.27-1.34.46-.78.18-1.47.18m9.67-.46h-3.73l4.6-33.26h3.78Zm13.33.55q-3.73 0-5.77-2.14-2.05-2.14-2.05-6.64 0-2.07.28-4.35.27-2.28.94-4.44t1.82-3.91 2.92-2.78q1.77-1.04 4.3-1.04 3.63 0 5.54 2.12 1.91 2.11 1.91 6.58 0 1.15-.07 2.43-.07 1.29-.3 2.63h-13.29q-.05.73-.09 1.35-.05.62-.05 1.08 0 2.9.97 4.33.96 1.42 2.94 1.42 2.02 0 3.4-1.61t1.71-3.77h3.81q-.36 2.35-1.49 4.33-1.13 1.97-2.99 3.19t-4.44 1.22m-3.31-14.9h9.24q.05-.46.05-.9v-.76q0-2.67-.9-4.02-.89-1.36-2.64-1.36-1.66 0-2.81 1.03-1.15 1.04-1.86 2.65t-1.08 3.36m23.42 14.9q-2.07 0-3.79-.92-1.73-.92-2.76-2.6-1.04-1.68-1.04-3.93 0-.37.02-.74.03-.36.07-.73h3.91q-.04.37-.09.73-.04.37-.04.74 0 2.12 1.21 3.13 1.22 1.01 2.88 1.01 1.61 0 2.55-1.01.95-1.01.95-2.44 0-1.38-.67-2.28-.67-.89-1.7-1.58-1.04-.69-2.23-1.34-1.2-.64-2.24-1.47-1.03-.83-1.7-2.05-.66-1.22-.66-3.01 0-1.93.82-3.47.83-1.54 2.51-2.44t4.12-.9q2.48 0 4 1.08t2.21 2.81q.69 1.72.69 3.7h-3.91q0-2.48-1.06-3.38t-2.35-.9q-1.01 0-2.07.74-1.05.74-1.05 2.21 0 1.38.66 2.25.67.88 1.7 1.5 1.04.62 2.24 1.22 1.19.59 2.23 1.42 1.03.83 1.7 2.07t.67 3.22q0 2.3-.97 3.96-.97 1.65-2.69 2.53-1.73.87-4.12.87m18.86 0q-2.07 0-3.79-.92-1.73-.92-2.76-2.6-1.04-1.68-1.04-3.93 0-.37.02-.74.03-.36.07-.73h3.91q-.04.37-.09.73-.04.37-.04.74 0 2.12 1.21 3.13 1.22 1.01 2.88 1.01 1.61 0 2.55-1.01.95-1.01.95-2.44 0-1.38-.67-2.28-.67-.89-1.7-1.58-1.04-.69-2.23-1.34-1.2-.64-2.24-1.47-1.03-.83-1.7-2.05-.66-1.22-.66-3.01 0-1.93.82-3.47.83-1.54 2.51-2.44t4.12-.9q2.48 0 4 1.08t2.21 2.81q.69 1.72.69 3.7h-3.91q0-2.48-1.06-3.38t-2.35-.9q-1.01 0-2.07.74-1.05.74-1.05 2.21 0 1.38.66 2.25.67.88 1.7 1.5 1.04.62 2.24 1.22 1.19.59 2.23 1.42 1.03.83 1.7 2.07t.67 3.22q0 2.3-.97 3.96-.97 1.65-2.69 2.53-1.73.87-4.12.87m32.48-.55h-4.05l3.91-27.88h-8.6l.55-3.68h21.25l-.55 3.68h-8.6Zm18.99.55q-2.67 0-4.4-2.16-1.72-2.16-1.72-6.81 0-5.56 1.4-9.18 1.4-3.61 3.54-5.38t4.4-1.77q1.65 0 2.99.83 1.33.83 2.02 3.08l.83-3.36h2.99l-.16 1.06q-.16 1.06-.39 2.81t-.53 3.86q-.3 2.12-.62 4.23-.33 2.12-.56 3.94-.23 1.81-.39 2.94t-.16 1.27q0 .69.32.98.33.3.79.3h1.47l-.37 2.63q-.32.23-.99.48t-1.59.25q-1.42 0-2.34-.9-.92-.89-.97-2.92-1.29 1.98-2.62 2.9t-2.94.92m1.15-3.36q1.33 0 2.3-1.01.96-1.01 1.63-2.62t1.08-3.45.6-3.52q.18-1.68.18-2.78 0-2.58-.78-3.89t-2.39-1.31q-1.47 0-2.53.99t-1.73 2.55q-.66 1.57-1.06 3.38-.39 1.82-.55 3.52t-.16 2.9q0 2.62.85 3.93t2.56 1.31m20.74 3.36q-2.07 0-3.79-.92-1.73-.92-2.76-2.6-1.04-1.68-1.04-3.93 0-.37.02-.74.03-.36.07-.73h3.91q-.04.37-.09.73-.04.37-.04.74 0 2.12 1.21 3.13 1.22 1.01 2.88 1.01 1.61 0 2.55-1.01.95-1.01.95-2.44 0-1.38-.67-2.28-.67-.89-1.7-1.58-1.04-.69-2.23-1.34-1.2-.64-2.24-1.47-1.03-.83-1.7-2.05-.66-1.22-.66-3.01 0-1.93.82-3.47.83-1.54 2.51-2.44t4.12-.9q2.48 0 4 1.08t2.21 2.81q.69 1.72.69 3.7h-3.91q0-2.48-1.06-3.38t-2.35-.9q-1.01 0-2.07.74-1.05.74-1.05 2.21 0 1.38.66 2.25.67.88 1.7 1.5 1.04.62 2.24 1.22 1.19.59 2.23 1.42 1.03.83 1.7 2.07t.67 3.22q0 2.3-.97 3.96-.97 1.65-2.69 2.53-1.73.87-4.12.87m14.96-.55h-3.77l4.65-33.26h3.77l-2.81 19.83 9.06-10.77h4.51l-8.55 9.94 5.52 14.26h-4.14l-4.05-11.13-2.99 2.53Zm29.44 0h-3.63l4.46-31.56h6.07l2.62 20.7q.1.74.16 1.8.07 1.06.1 2.04.02.99.04 1.66l.03.67h.18l.16-.67q.16-.67.41-1.68.26-1.01.58-2.05.32-1.03.6-1.77l8.55-20.7h6.21l-4.46 31.56h-4.05l3.22-22.91q.05-.37.16-1.01.12-.64.23-1.31.12-.67.21-1.15l.09-.48h-.18l-.28.8q-.27.81-.59 1.75-.33.94-.56 1.4l-9.52 22.91h-3.63l-2.99-22.91q-.05-.37-.12-1.31t-.14-1.79l-.06-.85h-.19l-.04.5q-.05.51-.14 1.2t-.16 1.33q-.07.65-.12.92Zm34.31.55q-2.67 0-4.4-2.16-1.72-2.16-1.72-6.81 0-5.56 1.4-9.18 1.41-3.61 3.54-5.38 2.14-1.77 4.4-1.77 1.65 0 2.99.83 1.33.83 2.02 3.08l.83-3.36h2.99l-.16 1.06q-.16 1.06-.39 2.81t-.53 3.86q-.3 2.12-.62 4.23-.32 2.12-.55 3.94-.23 1.81-.4 2.94-.16 1.13-.16 1.27 0 .69.33.98.32.3.78.3h1.47l-.37 2.63q-.32.23-.99.48-.66.25-1.58.25-1.43 0-2.35-.9-.92-.89-.97-2.92-1.28 1.98-2.62 2.9-1.33.92-2.94.92m1.15-3.36q1.33 0 2.3-1.01.96-1.01 1.63-2.62t1.08-3.45q.42-1.84.6-3.52t.18-2.78q0-2.58-.78-3.89t-2.39-1.31q-1.47 0-2.53.99t-1.73 2.55q-.66 1.57-1.05 3.38-.39 1.82-.56 3.52-.16 1.7-.16 2.9 0 2.62.85 3.93.86 1.31 2.56 1.31m16.97 2.81h-3.77l3.4-24.2h2.95v3.59q.37-.69 1.12-1.65.76-.97 2.07-1.73 1.32-.76 3.25-.76 2.02 0 3.15.78 1.13.79 1.61 2.03t.48 2.62q0 .37-.18 1.91-.19 1.54-.49 3.72-.29 2.19-.62 4.58-.32 2.39-.62 4.46t-.48 3.36l-.18 1.29h-3.78l.19-1.24q.18-1.24.46-3.2.27-1.95.6-4.23.32-2.28.59-4.37.28-2.09.46-3.57.19-1.47.19-1.84 0-1.56-.72-2.25-.71-.69-2.04-.69-2.3 0-3.77 2.18-1.48 2.19-1.98 5.69Zm23.84.55q-2.67 0-4.39-2.16-1.73-2.16-1.73-6.81 0-5.56 1.4-9.18 1.41-3.61 3.55-5.38t4.39-1.77q1.66 0 2.99.83t2.02 3.08l.83-3.36h2.99l-.16 1.06q-.16 1.06-.39 2.81t-.53 3.86q-.3 2.12-.62 4.23-.32 2.12-.55 3.94-.23 1.81-.39 2.94t-.16 1.27q0 .69.32.98.32.3.78.3h1.47l-.37 2.63q-.32.23-.99.48-.66.25-1.58.25-1.43 0-2.35-.9-.92-.89-.96-2.92-1.29 1.98-2.63 2.9-1.33.92-2.94.92m1.15-3.36q1.33 0 2.3-1.01t1.63-2.62q.67-1.61 1.08-3.45.42-1.84.6-3.52.19-1.68.19-2.78 0-2.58-.79-3.89-.78-1.31-2.39-1.31-1.47 0-2.53.99t-1.72 2.55q-.67 1.57-1.06 3.38-.39 1.82-.55 3.52t-.16 2.9q0 2.62.85 3.93t2.55 1.31m19.78 11.18q-2.48 0-4.09-1.01t-2.4-2.67q-.78-1.65-.78-3.59h3.77q0 1.98.9 2.97t2.74.99q2.25 0 3.49-1.52 1.25-1.52 1.75-4.69l.51-3.04q-1.24 1.98-2.58 2.9-1.33.92-3.03.92-2.26 0-3.62-1.24-1.35-1.24-1.95-3.17-.6-1.94-.6-3.96 0-3.31.53-5.91t1.45-4.51 2.09-3.15q1.18-1.24 2.53-1.84 1.36-.6 2.69-.6 1.75 0 3.11.83t2.09 3.08l.78-3.36h2.99l-3.08 21.95q-.78 5.65-3.08 8.14-2.3 2.48-6.21 2.48m1.47-12.1q1.34 0 2.32-.94.99-.94 1.68-2.46t1.08-3.22q.4-1.7.58-3.27.18-1.56.18-2.57-.04-2.58-.87-3.89t-2.53-1.31q-1.52 0-2.55.97-1.04.96-1.71 2.5-.66 1.54-1.03 3.31-.37 1.78-.51 3.43-.13 1.66-.13 2.81 0 4.64 3.49 4.64m21.34 4.28q-3.73 0-5.78-2.14-2.04-2.14-2.04-6.64 0-2.07.27-4.35.28-2.28.94-4.44.67-2.16 1.82-3.91t2.92-2.78q1.77-1.04 4.3-1.04 3.64 0 5.55 2.12 1.91 2.11 1.91 6.58 0 1.15-.07 2.43-.07 1.29-.3 2.63h-13.3q-.04.73-.09 1.35-.04.62-.04 1.08 0 2.9.96 4.33.97 1.42 2.95 1.42 2.02 0 3.4-1.61t1.7-3.77h3.82q-.37 2.35-1.5 4.33-1.12 1.97-2.99 3.19-1.86 1.22-4.43 1.22m-3.32-14.9h9.25q.05-.46.05-.9v-.76q0-2.67-.9-4.02-.9-1.36-2.65-1.36-1.65 0-2.8 1.03-1.15 1.04-1.87 2.65-.71 1.61-1.08 3.36m19.66 14.35h-3.78l3.41-24.2h2.94v3.59q.32-.69 1.08-1.65.76-.97 2.03-1.73 1.26-.76 3.1-.76 2.35 0 3.45 1.24 1.11 1.25 1.34 2.99.32-.69 1.05-1.68.74-.98 2.03-1.77 1.29-.78 3.17-.78 1.84 0 2.9.78 1.06.79 1.52 2.03t.46 2.62q0 .37-.19 1.91-.18 1.54-.48 3.72-.3 2.19-.62 4.58t-.62 4.46-.48 3.36l-.19 1.29h-3.77l.18-1.24q.19-1.24.46-3.2.28-1.95.6-4.23t.6-4.37.46-3.57q.18-1.47.18-1.84 0-1.56-.64-2.25t-1.75-.69q-2.11 0-3.52 2-1.4 2-1.86 5.27l-1.98 14.12h-3.77l.18-1.24q.19-1.24.46-3.2.28-1.95.6-4.23t.6-4.37.46-3.57q.18-1.47.18-1.84 0-1.56-.64-2.25t-1.75-.69q-2.21 0-3.61 2.18-1.4 2.19-1.91 5.69Zm36.05.55q-3.73 0-5.77-2.14-2.05-2.14-2.05-6.64 0-2.07.28-4.35.27-2.28.94-4.44t1.82-3.91 2.92-2.78q1.77-1.04 4.3-1.04 3.63 0 5.54 2.12 1.91 2.11 1.91 6.58 0 1.15-.07 2.43-.07 1.29-.3 2.63h-13.29q-.05.73-.09 1.35-.05.62-.05 1.08 0 2.9.97 4.33.96 1.42 2.94 1.42 2.02 0 3.4-1.61t1.71-3.77h3.81q-.36 2.35-1.49 4.33-1.13 1.97-2.99 3.19t-4.44 1.22m-3.31-14.9h9.24q.05-.46.05-.9v-.76q0-2.67-.9-4.02-.89-1.36-2.64-1.36-1.66 0-2.81 1.03-1.15 1.04-1.86 2.65t-1.08 3.36m19.65 14.35h-3.77l3.4-24.2h2.95v3.59q.36-.69 1.12-1.65.76-.97 2.07-1.73t3.25-.76q2.02 0 3.15.78 1.12.79 1.61 2.03.48 1.24.48 2.62 0 .37-.18 1.91-.19 1.54-.49 3.72-.3 2.19-.62 4.58t-.62 4.46-.48 3.36l-.19 1.29h-3.77l.19-1.24q.18-1.24.46-3.2.27-1.95.59-4.23.33-2.28.6-4.37.28-2.09.46-3.57.19-1.47.19-1.84 0-1.56-.72-2.25-.71-.69-2.04-.69-2.3 0-3.78 2.18-1.47 2.19-1.97 5.69Zm21.47.46q-2.11 0-2.92-1.17-.8-1.18-.8-2.74 0-.32.18-1.68l.44-3.33q.25-1.98.57-4.12t.58-4.03q.25-1.88.43-3.06l.19-1.17h-2.07l.46-3.36h2.07l1.65-6.71h3.09l-.97 6.71h3.27l-.46 3.36h-3.27l-.16 1.15q-.16 1.15-.44 2.95-.27 1.79-.55 3.86t-.55 3.91q-.28 1.84-.44 3.08t-.16 1.38q0 1.7 1.7 1.7h1.34l-.37 2.63q-.55.27-1.34.46-.78.18-1.47.18"/></g><path fill="transparent" stroke="transparent" stroke-width="2.679" d="M250 512.946h1500v474.108H250z"/></g></svg>